PathFileType  4	(X/Y/Z) C:\Users\antoi\Documents\MyRepositories\mobilecap\ResultsAnalysis
DataRate	CameraRate	NumFrames	NumMarkers	Units	OrigDataRate	OrigDataStartFrame	OrigNumFrames
100.0	100.0	4	51	mm	100.0	136	271
Frame#	Time	r_knee			r_shank_antsup			r_ankle			r_calc			r_5meta			r_toe			L_knee			L_shank_antsup			L_ankle			L_calc			L_5meta			L_toe			r_sh2			r_sh3			r_sh4			L_sh2			L_sh3			r_thigh1			r_thigh2			r_thigh3			r_thigh4			r_thigh5			L_thigh1			L_thigh2			L_thigh3			L_thigh4			r.ASIS			r.PSIS			L.ASIS			L.PSIS			C7			R_Shoulder			L_Shoulder			R_Sternum			L_Sternum			R_humerus			R_elbow_med			R_elbow_lat			R_forearm			R_wrist_radius			R_wrist_ulna			L_humerus			L_elbow_med			L_elbow_lat			L_forearm			L_wrist_radius			L_wrist_ulna			R_HJC			L_HJC			R_HJC_reg			L_HJC_reg			
		X1	Y1	Z1	X2	Y2	Z2	X3	Y3	Z3	X4	Y4	Z4	X5	Y5	Z5	X6	Y6	Z6	X7	Y7	Z7	X8	Y8	Z8	X9	Y9	Z9	X10	Y10	Z10	X11	Y11	Z11	X12	Y12	Z12	X13	Y13	Z13	X14	Y14	Z14	X15	Y15	Z15	X16	Y16	Z16	X17	Y17	Z17	X18	Y18	Z18	X19	Y19	Z19	X20	Y20	Z20	X21	Y21	Z21	X22	Y22	Z22	X23	Y23	Z23	X24	Y24	Z24	X25	Y25	Z25	X26	Y26	Z26	X27	Y27	Z27	X28	Y28	Z28	X29	Y29	Z29	X30	Y30	Z30	X31	Y31	Z31	X32	Y32	Z32	X33	Y33	Z33	X34	Y34	Z34	X35	Y35	Z35	X36	Y36	Z36	X37	Y37	Z37	X38	Y38	Z38	X39	Y39	Z39	X40	Y40	Z40	X41	Y41	Z41	X42	Y42	Z42	X43	Y43	Z43	X44	Y44	Z44	X45	Y45	Z45	X46	Y46	Z46	X47	Y47	Z47	X48	Y48	Z48	X49	Y49	Z49	X50	Y50	Z50	X51	Y51	Z51	

136	1.35000000	-519.74449	874.75177	-401.40378	-544.21956	832.10303	-370.48690	-565.79259	470.65953	-397.47979	-626.87027	451.73445	-451.26482	-464.60164	371.52138	-362.96457	-414.97379	387.44542	-412.69365	-554.35845	850.00400	-768.33306	-522.42538	767.66933	-781.51140	-585.02916	448.63809	-763.86045	-650.91709	423.95497	-712.88764	-482.11404	353.31917	-781.44263	-436.65928	367.54927	-728.43147	-552.02272	717.25151	-357.94218	-473.93314	828.45751	-403.82217	-483.08987	712.54778	-407.02309	-608.97061	781.76202	-793.57535	-614.68062	659.66188	-796.96769	-577.75034	1161.72225	-493.86684	-515.89415	1071.85291	-470.04091	-522.26057	1054.42175	-404.82425	-628.51891	1149.93272	-393.70140	-572.07084	1051.11436	-377.22798	-631.60546	1163.38480	-765.64481	-583.46628	1030.80592	-787.56245	-737.12727	1124.65694	-771.28363	-690.75790	992.36621	-760.56498	-615.25835	1288.98927	-468.62478	-793.14394	1347.75173	-545.61358	-619.26014	1268.06929	-697.42788	-794.08949	1345.69050	-642.16670	-553.08639	1769.96762	-600.17636	-500.67074	1715.61465	-442.09829	-510.60598	1700.16357	-751.04703	-494.18924	1638.44600	-584.79595	-489.67939	1637.91047	-608.29237	-548.63197	1517.70381	-309.57762	-614.89826	1413.52623	-326.27130	-581.63207	1436.97633	-268.27013	-442.90404	1422.81550	-290.76206	-353.15080	1425.14826	-336.19404	-348.52736	1393.22085	-305.21000	-574.45839	1504.89867	-874.40058	-641.30541	1393.51252	-851.47483	-614.29272	1409.69776	-914.16815	-475.88586	1364.32755	-876.22688	-386.23720	1349.65018	-820.39323	-392.13559	1308.72482	-838.96379	-701.55771	1218.79248	-495.96531	-712.62526	1214.80602	-686.27328	-694.59851	1222.62911	-497.92126	-696.08340	1219.39236	-649.54243	
137	1.36000000	-509.36159	861.53177	-400.12540	-532.76817	818.03356	-368.78456	-543.37401	455.33383	-395.28619	-603.87835	437.04233	-449.26578	-440.89829	356.12534	-362.06167	-391.35679	373.63974	-411.55543	-543.90889	836.91496	-769.72417	-509.95253	755.56576	-782.72267	-560.54288	434.10199	-765.93345	-625.92043	409.23866	-714.70208	-456.25229	338.55427	-781.51879	-411.12786	354.10837	-728.68351	-537.03805	703.25969	-355.63083	-462.80749	816.41176	-402.87332	-468.40118	700.18229	-405.65512	-596.97846	766.50990	-795.12137	-597.96226	644.43927	-799.03336	-565.59500	1148.29722	-494.67224	-505.28677	1057.65081	-471.46437	-510.47990	1040.84389	-405.33253	-616.16018	1137.76600	-394.01824	-560.35026	1038.69985	-377.21620	-619.14776	1151.05218	-765.41857	-571.57085	1018.17657	-787.24266	-724.82514	1112.80196	-772.04136	-679.18699	980.21981	-761.84493	-603.24119	1276.73133	-469.05485	-781.71449	1334.47888	-545.70640	-607.74414	1255.59075	-697.75573	-782.75456	1332.34834	-642.25928	-544.51886	1758.55549	-600.26546	-492.13152	1704.65102	-442.23331	-502.18622	1689.67555	-750.89834	-485.19283	1626.96409	-585.40237	-480.98041	1625.83152	-609.41190	-542.82493	1507.77788	-308.95914	-610.04744	1403.88911	-325.80859	-577.20410	1427.50677	-267.43683	-438.40772	1412.83323	-289.01756	-348.25219	1414.72329	-333.61190	-343.92144	1382.85758	-302.73824	-567.84931	1495.75497	-875.55134	-636.43468	1385.08424	-853.55283	-609.17893	1401.39425	-916.25209	-471.21470	1354.31819	-879.24750	-381.50054	1338.40710	-823.96210	-388.01683	1297.66947	-842.83224	-689.28669	1206.06478	-496.12162	-700.75402	1201.83864	-686.40092	-682.40970	1209.89399	-498.20256	-684.04221	1206.54948	-649.77226	
138	1.37000000	-499.17483	847.07859	-398.67853	-521.27973	802.85910	-367.24065	-522.06320	439.57704	-392.87544	-581.97596	421.24966	-447.26793	-418.26131	340.28287	-361.21212	-368.84396	359.45354	-410.06409	-533.49518	822.77104	-770.83537	-497.69250	742.27456	-783.93149	-536.87955	418.92218	-768.08876	-601.45834	393.79149	-716.52984	-431.37818	323.02245	-781.73671	-386.37703	339.93423	-729.39461	-522.30714	687.96433	-353.87087	-451.68261	803.00188	-401.87342	-454.08426	686.61746	-404.47892	-585.02863	750.32631	-796.62941	-581.60935	628.39323	-800.94036	-553.05506	1133.70571	-495.16812	-494.10310	1042.46780	-472.14596	-498.78992	1026.15404	-405.29320	-603.55575	1124.39540	-394.08028	-548.60823	1024.83035	-377.05776	-606.34005	1137.35307	-764.97786	-559.50353	1004.38488	-787.31364	-712.16877	1099.95088	-772.95950	-667.45719	966.90277	-763.09796	-591.04497	1263.57318	-469.32432	-770.16474	1320.00940	-545.73984	-595.95998	1242.46969	-698.23643	-771.31007	1317.80202	-642.31272	-536.24662	1746.36635	-600.51528	-483.88696	1692.90347	-442.37117	-494.00563	1678.33500	-750.71452	-476.43926	1614.72510	-585.73202	-472.42194	1613.54794	-608.56395	-537.01066	1497.03397	-308.55502	-604.87547	1393.29191	-325.45229	-572.41408	1417.22766	-266.67119	-433.59216	1402.37962	-287.48614	-343.02446	1404.06096	-331.52508	-339.00957	1372.52374	-300.35831	-561.39341	1485.65124	-876.54834	-631.61520	1375.72356	-855.25107	-604.32423	1392.14251	-918.01280	-466.59932	1343.85346	-882.12409	-376.60304	1327.09619	-827.46488	-383.64416	1286.49008	-846.60025	-676.63689	1192.26610	-496.35487	-688.46382	1187.97905	-686.61082	-669.91090	1196.19288	-498.36928	-671.70990	1192.72563	-650.07624	
139	1.38000000	-488.91551	831.37105	-397.34745	-510.03444	786.47058	-366.01959	-501.82667	423.30112	-390.12562	-561.10036	404.27297	-445.05935	-396.62275	323.97942	-360.30949	-347.41652	344.81160	-408.35011	-522.95065	807.43217	-771.71248	-485.49711	727.86453	-785.22302	-514.26018	402.86519	-769.88170	-577.75283	377.59519	-718.26748	-407.46790	307.06605	-782.40226	-362.53454	325.07257	-730.47627	-508.39013	671.78931	-352.02002	-440.67664	788.26291	-400.73368	-440.20527	671.87472	-403.01093	-572.94116	733.13416	-798.02177	-565.67193	611.26132	-802.34675	-540.19057	1118.02876	-495.38286	-482.15446	1026.38799	-471.99655	-487.01928	1010.44538	-404.90188	-590.69698	1109.60830	-394.15591	-536.79398	1009.51541	-376.80193	-593.22683	1122.28525	-764.45604	-547.23893	989.38156	-787.61541	-699.32679	1085.90505	-773.81395	-655.55194	952.46065	-764.42160	-578.73267	1249.46023	-469.47927	-758.47283	1304.35414	-545.77150	-583.89115	1228.49074	-698.62583	-759.79482	1301.95782	-642.21288	-528.29080	1733.27446	-600.80404	-475.94544	1680.43506	-442.55552	-486.10870	1666.15624	-750.80309	-467.92873	1601.74882	-585.89527	-463.86938	1600.79803	-607.70819	-531.14718	1485.42002	-308.15033	-599.37986	1381.65537	-325.28854	-567.33350	1405.98941	-266.14666	-428.44040	1391.38557	-286.20374	-337.61440	1393.22692	-329.74712	-333.78955	1361.98801	-298.26552	-555.13533	1474.61573	-877.64384	-626.70865	1365.30924	-856.65598	-599.64984	1381.94785	-919.48741	-462.01794	1332.81960	-884.84638	-371.59656	1315.55587	-830.94138	-379.00232	1275.05762	-850.10165	-663.68672	1177.38730	-496.52222	-675.80658	1173.06348	-686.75885	-657.10835	1181.64634	-498.30259	-659.19025	1177.87336	-650.14799	
